<svg id="Layer_1" data-name="Layer 1" xmlns="http://www.w3.org/2000/svg" viewBox="0 0 43.5 59.5"><defs><style>.cls-1{fill:#f05b66;}</style></defs><title>Lollypop_logo</title><path id="_Path_" data-name="&lt;Path&gt;" class="cls-1" d="M25.13,3.22a19.43,19.43,0,0,0-6.7,38.17c.18,0,4.44,1.24,4.82,5.48v8.19a2.1,2.1,0,0,0,4.2,0V46.62c-.57-7.33-7.67-9.22-8-9.29C11,35.09,8,28.1,8,22.3A15,15,0,0,1,24.67,7.4a12.73,12.73,0,0,1,9,5,12,12,0,0,1-2,16.43,8.89,8.89,0,0,1-6.75,1.83,10,10,0,0,1-6.51-3.19,7.67,7.67,0,0,1,.35-10,5.74,5.74,0,0,1,7.8-.18,3.73,3.73,0,0,1,1.18,2.94,3,3,0,0,1-1.24,2.22,2.46,2.46,0,0,1-1.9.41.87.87,0,0,1-.61-.59A2.1,2.1,0,1,0,20,23.87a5.08,5.08,0,0,0,3.34,3,6.67,6.67,0,0,0,5.5-1,7.22,7.22,0,0,0,3-5.29,8,8,0,0,0-2.4-6.25,10,10,0,0,0-13.74.18,11.9,11.9,0,0,0-.56,15.72,14.21,14.21,0,0,0,9.25,4.63A13.09,13.09,0,0,0,34.35,32,16.21,16.21,0,0,0,37,9.89,16.89,16.89,0,0,0,25.13,3.22Z"/></svg>